<svg width="22" height="22" viewBox="0 0 22 22" fill="none" xmlns="http://www.w3.org/2000/svg">
<path d="M10.4738 19.9474C8.62541 19.953 6.84245 19.2637 5.47852 18.0162C4.11459 16.7688 3.26931 15.0543 3.11033 13.2127C2.95135 11.3712 3.49028 9.53722 4.62024 8.07446C5.75019 6.61171 7.38864 5.62705 9.21061 5.31579C15.2106 4.15789 16.7896 3.61053 18.8948 1C19.9474 3.10526 21.0001 5.4 21.0001 9.42105C21.0001 15.2105 15.9685 19.9474 10.4738 19.9474Z" stroke="#00994D" stroke-width="2" stroke-linecap="round" stroke-linejoin="round"/>
<path d="M1 21.0001C1 17.8422 2.94737 15.3579 6.34737 14.6843C8.89474 14.179 11.5263 12.579 12.5789 11.5264" stroke="#00994D" stroke-width="2" stroke-linecap="round" stroke-linejoin="round"/>
</svg>
