<svg width="26" height="18" viewBox="0 0 26 18" fill="none" xmlns="http://www.w3.org/2000/svg">
<path d="M6.99961 16.5997C7.63613 16.5997 8.24658 16.3468 8.69666 15.8967C9.14675 15.4467 9.39961 14.8362 9.39961 14.1997C9.39961 13.5632 9.14675 12.9528 8.69666 12.5027C8.24658 12.0527 7.63613 11.7998 6.99961 11.7998C6.36309 11.7998 5.75264 12.0527 5.30255 12.5027C4.85247 12.9528 4.59961 13.5632 4.59961 14.1997C4.59961 14.8362 4.85247 15.4467 5.30255 15.8967C5.75264 16.3468 6.36309 16.5997 6.99961 16.5997ZM18.9996 16.5997C19.6361 16.5997 20.2466 16.3468 20.6967 15.8967C21.1468 15.4467 21.3996 14.8362 21.3996 14.1997C21.3996 13.5632 21.1468 12.9528 20.6967 12.5027C20.2466 12.0527 19.6361 11.7998 18.9996 11.7998C18.3631 11.7998 17.7526 12.0527 17.3026 12.5027C16.8525 12.9528 16.5996 13.5632 16.5996 14.1997C16.5996 14.8362 16.8525 15.4467 17.3026 15.8967C17.7526 16.3468 18.3631 16.5997 18.9996 16.5997Z" stroke="#00994D" stroke-width="2" stroke-miterlimit="1.5" stroke-linecap="round" stroke-linejoin="round"/>
<path d="M15.4 14.1996V1.71998C15.4 1.52903 15.3241 1.3459 15.1891 1.21088C15.0541 1.07585 14.871 1 14.68 1H1.72C1.52904 1 1.34591 1.07585 1.21088 1.21088C1.07586 1.3459 1 1.52903 1 1.71998V13.4797C1 13.5742 1.01862 13.6678 1.05481 13.7552C1.09099 13.8425 1.14402 13.9219 1.21088 13.9888C1.27774 14.0556 1.35711 14.1087 1.44447 14.1448C1.53182 14.181 1.62545 14.1996 1.72 14.1996H4.18M15.4 14.1996H9.46M15.4 14.1996H16.6M15.4 4.5999H22.132C22.2712 4.59994 22.4074 4.6403 22.5241 4.71612C22.6408 4.79193 22.733 4.89995 22.7896 5.02709L24.9376 9.86056C24.9785 9.95234 24.9998 10.0517 25 10.1522V13.4797C25 13.5742 24.9814 13.6678 24.9452 13.7552C24.909 13.8425 24.856 13.9219 24.7891 13.9888C24.7223 14.0556 24.6429 14.1087 24.5555 14.1448C24.4682 14.181 24.3746 14.1996 24.28 14.1996H22" stroke="#00994D" stroke-width="2" stroke-linecap="round"/>
</svg>
