<svg width="40" height="51" viewBox="0 0 40 51" fill="none" xmlns="http://www.w3.org/2000/svg">
<path fill-rule="evenodd" clip-rule="evenodd" d="M18.44 0.280788C19.3169 -0.046116 20.2751 -0.0887338 21.1778 0.159014L21.56 0.280788L37.1156 6.09275C37.9043 6.38743 38.5927 6.89935 39.1007 7.56889C39.6086 8.23842 39.9151 9.03798 39.9844 9.8744L40 10.2397V22.1138C39.9999 25.7016 39.0276 29.2228 37.1858 32.3057C35.3439 35.3886 32.7009 37.9189 29.5356 39.6294L28.9444 39.9372L21.4911 43.6502C21.0807 43.8544 20.6325 43.9719 20.1744 43.9956C19.7163 44.0192 19.2582 43.9483 18.8289 43.7875L18.5089 43.6502L11.0556 39.9372C7.83469 38.3326 5.10839 35.8914 3.16445 32.8712C1.22052 29.851 0.131068 26.3639 0.0111114 22.7781L0 22.1138V10.2397C1.29223e-05 9.40088 0.23917 8.57929 0.689631 7.8706C1.14009 7.16191 1.78332 6.59528 2.54444 6.23667L2.88444 6.09275L18.44 0.280788ZM27.6289 14.5262L17.4111 24.7065L13.4822 20.792C13.0652 20.3769 12.4998 20.1438 11.9103 20.144C11.3208 20.1442 10.7556 20.3777 10.3389 20.7931C9.9222 21.2086 9.68823 21.772 9.68844 22.3593C9.68865 22.9466 9.92302 23.5098 10.34 23.925L15.6822 29.2476C15.9092 29.4739 16.1788 29.6534 16.4754 29.7759C16.772 29.8983 17.09 29.9614 17.4111 29.9614C17.7322 29.9614 18.0502 29.8983 18.3468 29.7759C18.6435 29.6534 18.913 29.4739 19.14 29.2476L30.7711 17.6569C30.9834 17.4527 31.1527 17.2083 31.2691 16.9382C31.3856 16.6681 31.4469 16.3776 31.4494 16.0836C31.452 15.7896 31.3958 15.498 31.284 15.2259C31.1723 14.9538 31.0073 14.7066 30.7987 14.4987C30.59 14.2909 30.3419 14.1265 30.0688 14.0151C29.7957 13.9038 29.5031 13.8478 29.208 13.8503C28.9129 13.8529 28.6213 13.914 28.3502 14.03C28.0791 14.146 27.8339 14.3147 27.6289 14.5262Z" fill="#00994D"/>
</svg>
