<svg width="56" height="47" viewBox="0 0 56 47" fill="none" xmlns="http://www.w3.org/2000/svg">
<path d="M49.7773 6H37.333C37.3026 6.00004 37.2828 6.00556 37.2637 6.01367C37.2403 6.02359 37.2105 6.04148 37.1816 6.07031C37.1527 6.09921 37.134 6.12897 37.124 6.15234C37.1159 6.17149 37.1113 6.19208 37.1113 6.22266V18.667C37.1114 18.6973 37.116 18.7173 37.124 18.7363C37.134 18.7597 37.1527 18.7895 37.1816 18.8184C37.2105 18.8473 37.2403 18.866 37.2637 18.876C37.2827 18.884 37.3027 18.8886 37.333 18.8887H49.7773C49.8079 18.8887 49.8285 18.8841 49.8477 18.876C49.871 18.866 49.9008 18.8473 49.9297 18.8184C49.9585 18.7895 49.9764 18.7597 49.9863 18.7363C49.9944 18.7172 50 18.6974 50 18.667V6.22266C50 6.192 49.9945 6.17153 49.9863 6.15234C49.9764 6.12899 49.9585 6.09916 49.9297 6.07031C49.9008 6.04147 49.871 6.02361 49.8477 6.01367C49.8285 6.00552 49.808 6 49.7773 6ZM18.667 6H6.22266C6.192 6 6.17153 6.00552 6.15234 6.01367C6.12899 6.02361 6.09916 6.04147 6.07031 6.07031C6.04147 6.09916 6.02362 6.12899 6.01367 6.15234C6.00552 6.17153 6 6.192 6 6.22266V18.667C6.00003 18.6974 6.00557 18.7172 6.01367 18.7363C6.02359 18.7597 6.04148 18.7895 6.07031 18.8184C6.09921 18.8473 6.12897 18.866 6.15234 18.876C6.17149 18.8841 6.19207 18.8887 6.22266 18.8887H18.667C18.6973 18.8886 18.7173 18.884 18.7363 18.876C18.7597 18.866 18.7895 18.8473 18.8184 18.8184C18.8473 18.7895 18.866 18.7597 18.876 18.7363C18.884 18.7173 18.8886 18.6973 18.8887 18.667V6.22266C18.8887 6.19208 18.8841 6.17149 18.876 6.15234C18.866 6.12897 18.8473 6.09921 18.8184 6.07031C18.7895 6.04148 18.7597 6.02359 18.7363 6.01367C18.7172 6.00556 18.6974 6.00004 18.667 6Z" fill="#00994D" stroke="#00994D" stroke-width="12"/>
<path d="M12.4444 40.4444C9.33332 37.3332 6.22221 31.111 6.22221 21.7777V12.4443M43.5555 40.4444C40.4444 37.3332 37.3333 31.111 37.3333 21.7777V12.4443" stroke="#00994D" stroke-width="12" stroke-linecap="round"/>
</svg>
