<svg width="22" height="22" viewBox="0 0 22 22" fill="none" xmlns="http://www.w3.org/2000/svg">
<path d="M11 20.6631C2.54405 20.6631 -0.12682 18.034 1.41329 13.2793H20.5867C22.1268 18.034 19.456 20.6631 11 20.6631Z" stroke="#00994D" stroke-width="2" stroke-linejoin="round"/>
<path d="M6.69922 6.72754C8.40617 8.92878 9.01016 11.147 9.25269 13.2386" stroke="#00994D" stroke-width="2" stroke-linecap="round" stroke-linejoin="round"/>
<path d="M2.2784 13.2706C1.35155 11.3011 1.64506 9.02881 2.93183 7.90579C2.73009 7.62469 2.5543 7.32584 2.40662 7.01294C1.32838 4.72365 1.95092 2.16249 3.79689 1.29126C5.6475 0.420034 8.02023 1.56931 9.09846 3.8586C9.24882 4.18094 9.36725 4.50533 9.45376 4.83178C10.9861 4.57999 12.6854 5.48984 13.6786 7.13806L13.9675 7.6988" stroke="#00994D" stroke-width="2" stroke-linecap="round" stroke-linejoin="round"/>
<path d="M11.9992 13.075H20.1122C20.2389 12.6177 20.3027 12.109 20.3037 11.5488C20.3037 8.83006 18.7744 7.30078 16.0557 7.30078C13.3369 7.30078 11.8076 8.83006 11.8076 11.5488C11.8076 12.109 11.8715 12.6177 11.9992 13.075Z" stroke="#00994D" stroke-width="2" stroke-linecap="round" stroke-linejoin="round"/>
</svg>
