<svg width="26" height="26" viewBox="0 0 26 26" fill="none" xmlns="http://www.w3.org/2000/svg">
<path d="M16.9974 10.5938L12.7532 16.2527C12.6844 16.3443 12.5968 16.42 12.4962 16.4748C12.3956 16.5296 12.2845 16.5621 12.1702 16.5702C12.056 16.5783 11.9414 16.5617 11.8341 16.5217C11.7268 16.4816 11.6294 16.419 11.5484 16.338L9.00146 13.7921" stroke="#00994D" stroke-width="2" stroke-linecap="round" stroke-linejoin="round"/>
<path d="M11.6455 1.64846C11.8083 1.44603 12.0145 1.2827 12.2488 1.17048C12.4832 1.05825 12.7397 1 12.9995 1C13.2593 1 13.5158 1.05825 13.7501 1.17048C13.9844 1.2827 14.1906 1.44603 14.3534 1.64846L15.9654 3.65383C16.1481 3.88127 16.385 4.05907 16.6544 4.17086C16.9238 4.28265 17.217 4.32483 17.507 4.29351L20.0657 4.01525C20.3247 3.98647 20.5869 4.01633 20.8328 4.10259C21.0787 4.18886 21.3021 4.32933 21.4864 4.51361C21.6707 4.69789 21.8111 4.92125 21.8974 5.16717C21.9837 5.41308 22.0135 5.67525 21.9848 5.93427L21.7065 8.49297C21.6752 8.78296 21.7173 9.07618 21.8291 9.3456C21.9409 9.61501 22.1187 9.85195 22.3462 10.0346L24.3515 11.6466C24.554 11.8094 24.7173 12.0156 24.8295 12.2499C24.9417 12.4842 25 12.7407 25 13.0005C25 13.2603 24.9417 13.5168 24.8295 13.7512C24.7173 13.9855 24.554 14.1917 24.3515 14.3545L22.3398 15.959C22.1122 16.1418 21.9343 16.3789 21.8225 16.6485C21.7107 16.9181 21.6686 17.2115 21.7001 17.5017L21.9784 20.0604C22.0071 20.3194 21.9773 20.5816 21.891 20.8275C21.8047 21.0734 21.6643 21.2968 21.48 21.4811C21.2957 21.6653 21.0724 21.8058 20.8264 21.8921C20.5805 21.9783 20.3183 22.0082 20.0593 21.9794L17.5006 21.7012C17.2106 21.6698 16.9174 21.712 16.648 21.8238C16.3786 21.9356 16.1417 22.1134 15.959 22.3408L14.3534 24.3387C14.1906 24.5412 13.9844 24.7045 13.7501 24.8167C13.5158 24.929 13.2593 24.9872 12.9995 24.9872C12.7397 24.9872 12.4832 24.929 12.2488 24.8167C12.0145 24.7045 11.8083 24.5412 11.6455 24.3387L10.0346 22.3344C9.85185 22.1068 9.61473 21.9289 9.34512 21.8171C9.0755 21.7053 8.78207 21.6633 8.4919 21.6948L5.9332 21.973C5.67406 22.0024 5.41163 21.973 5.16542 21.8869C4.91922 21.8009 4.69559 21.6604 4.51118 21.476C4.32676 21.2916 4.1863 21.068 4.10026 20.8218C4.01421 20.5756 3.98479 20.3131 4.01418 20.054L4.29244 17.4953C4.32395 17.2051 4.28186 16.9117 4.17007 16.6421C4.05827 16.3725 3.88036 16.1354 3.65277 15.9526L1.64846 14.3417C1.44603 14.1789 1.2827 13.9727 1.17048 13.7384C1.05825 13.504 1 13.2475 1 12.9877C1 12.7279 1.05825 12.4714 1.17048 12.2371C1.2827 12.0028 1.44603 11.7966 1.64846 11.6338L3.65277 10.0218C3.8802 9.83916 4.05801 9.60222 4.1698 9.3328C4.28159 9.06339 4.32376 8.77017 4.29244 8.48017L4.01418 5.92148C3.98541 5.66246 4.01526 5.40029 4.10153 5.15437C4.18779 4.90846 4.32826 4.68509 4.51254 4.50081C4.69682 4.31654 4.92019 4.17607 5.1661 4.0898C5.41202 4.00353 5.67419 3.97368 5.9332 4.00246L8.4919 4.28071C8.78207 4.31222 9.0755 4.27014 9.34512 4.15834C9.61473 4.04654 9.85185 3.86864 10.0346 3.64104L11.6455 1.64846Z" stroke="#00994D" stroke-width="2" stroke-linecap="round" stroke-linejoin="round"/>
</svg>
