<svg width="56" height="47" viewBox="0 0 56 47" fill="none" xmlns="http://www.w3.org/2000/svg">
<path d="M6.22266 6H18.667C18.6974 6.00004 18.7172 6.00556 18.7363 6.01367C18.7597 6.02359 18.7895 6.04148 18.8184 6.07031C18.8473 6.09921 18.866 6.12897 18.876 6.15234C18.8841 6.17149 18.8887 6.19208 18.8887 6.22266V18.667C18.8886 18.6973 18.884 18.7173 18.876 18.7363C18.866 18.7597 18.8473 18.7895 18.8184 18.8184C18.7895 18.8473 18.7597 18.866 18.7363 18.876C18.7173 18.884 18.6973 18.8886 18.667 18.8887H6.22266C6.19207 18.8887 6.17149 18.8841 6.15234 18.876C6.12897 18.866 6.09921 18.8473 6.07031 18.8184C6.04148 18.7895 6.02359 18.7597 6.01367 18.7363C6.00557 18.7172 6.00003 18.6974 6 18.667V6.22266C6 6.192 6.00552 6.17153 6.01367 6.15234C6.02362 6.12899 6.04147 6.09916 6.07031 6.07031C6.09916 6.04147 6.12899 6.02361 6.15234 6.01367C6.17153 6.00552 6.192 6 6.22266 6ZM37.333 6H49.7773C49.808 6 49.8285 6.00552 49.8477 6.01367C49.871 6.02361 49.9008 6.04147 49.9297 6.07031C49.9585 6.09916 49.9764 6.12899 49.9863 6.15234C49.9945 6.17153 50 6.192 50 6.22266V18.667C50 18.6974 49.9944 18.7172 49.9863 18.7363C49.9764 18.7597 49.9585 18.7895 49.9297 18.8184C49.9008 18.8473 49.871 18.866 49.8477 18.876C49.8285 18.8841 49.8079 18.8887 49.7773 18.8887H37.333C37.3027 18.8886 37.2827 18.884 37.2637 18.876C37.2403 18.866 37.2105 18.8473 37.1816 18.8184C37.1527 18.7895 37.134 18.7597 37.124 18.7363C37.116 18.7173 37.1114 18.6973 37.1113 18.667V6.22266C37.1113 6.19208 37.1159 6.17149 37.124 6.15234C37.134 6.12897 37.1527 6.09921 37.1816 6.07031C37.2105 6.04148 37.2403 6.02359 37.2637 6.01367C37.2828 6.00556 37.3026 6.00004 37.333 6Z" fill="#00994D" stroke="#00994D" stroke-width="12"/>
<path d="M43.5554 40.4444C46.6666 37.3332 49.7777 31.111 49.7777 21.7777V12.4443M12.4443 40.4444C15.5554 37.3332 18.6666 31.111 18.6666 21.7777V12.4443" stroke="#00994D" stroke-width="12" stroke-linecap="round"/>
</svg>
