<svg width="23" height="25" viewBox="0 0 23 25" fill="none" xmlns="http://www.w3.org/2000/svg">
<path d="M20.9371 17.4836C20.3281 13.8486 18.5876 10.4984 15.9636 7.91013C15.3892 7.35123 15.1025 7.07234 14.4681 6.81456C13.8336 6.55566 13.288 6.55566 12.198 6.55566H9.8024C8.71237 6.55566 8.1668 6.55566 7.53235 6.81456C6.899 7.07234 6.6101 7.35123 6.03676 7.91013C3.41276 10.4984 1.67233 13.8486 1.06331 17.4836C0.522191 20.7481 3.53337 23.2226 6.89789 23.2226H15.1025C18.4681 23.2226 21.4804 20.7481 20.936 17.4836H20.9371Z" stroke="#00994D" stroke-width="2" stroke-linecap="round"/>
<path d="M5.7301 3.71449C5.50009 3.38115 5.16787 2.92781 5.85455 2.82558C6.56012 2.71892 7.29236 3.20115 8.01015 3.19226C8.65794 3.18226 8.98795 2.89447 9.34351 2.48336C9.71685 2.05113 10.2946 1 11.0002 1C11.7058 1 12.2836 2.05113 12.6569 2.48336C13.0125 2.89447 13.3425 3.18337 13.9903 3.19114C14.7081 3.20226 15.4403 2.71892 16.1459 2.82447C16.8326 2.92781 16.5003 3.38004 16.2703 3.71337L15.2348 5.2234C14.7903 5.86785 14.5692 6.19008 14.1047 6.37342C13.6403 6.55675 13.0414 6.55564 11.8425 6.55564H10.158C8.95795 6.55564 8.35905 6.55564 7.8957 6.37342C7.43236 6.19119 7.21013 5.86674 6.76568 5.22229L5.7301 3.71449Z" stroke="#00994D" stroke-width="2"/>
</svg>
