<svg width="22" height="22" viewBox="0 0 22 22" fill="none" xmlns="http://www.w3.org/2000/svg">
<path d="M4.33295 3.22222V5.44444M17.667 3.22222V5.44444M11 1V5.44444M14.3524 21C14.9691 21 15.4691 20.5022 15.4691 19.8889V19.3889C15.4691 19.0478 15.6514 18.7633 15.9503 18.5944C16.7411 18.1501 17.4678 17.6003 18.1104 16.96C19.7246 15.3604 20.7422 13.2562 20.9939 10.9978C21.0617 10.3878 20.555 9.88889 19.9383 9.88889H2.06171C1.44501 9.88889 0.938315 10.3889 1.0061 10.9978C1.25746 13.2561 2.27469 15.3602 3.88848 16.96C4.49734 17.5669 5.18192 18.0927 5.92527 18.5244C6.29195 18.7389 6.53641 19.1211 6.53419 19.5444V19.8856C6.53419 20.0321 6.56309 20.1772 6.61924 20.3125C6.67539 20.4479 6.75768 20.5709 6.86141 20.6744C6.96513 20.7779 7.08826 20.8599 7.22373 20.9158C7.35921 20.9717 7.50437 21.0003 7.65092 21H14.3524Z" stroke="#00994D" stroke-width="2" stroke-linecap="round" stroke-linejoin="round"/>
</svg>
