<svg width="48" height="44" viewBox="0 0 48 44" fill="none" xmlns="http://www.w3.org/2000/svg">
<path d="M24 16.1603L15.888 11.7985V2.90791L20.76 0V7.26977L24 8.74756L27.24 7.26977V0L32.112 2.90791V11.7985L24 16.1603ZM7.752 25.5991L0 30.0563V35.9913L6.456 32.2969L9.264 34.1083L9.456 37.3499L2.976 41.0683L8.208 44L15.864 39.4951L15.6 30.3662L7.752 25.5991ZM27.216 23.8115V15.5605L24.476 17.0343L24 17.2905L23.524 17.0323L20.784 15.5605V23.8115L13.558 27.9628L16.122 29.5181L16.584 29.8001L16.6 30.3364L16.692 33.5383L24 29.3413L31.19 33.4707L31.28 30.3126L31.296 29.7763L31.758 29.4942L34.36 27.9151L27.216 23.8115ZM41.544 32.2969L48 35.9913V30.0563L40.128 25.5753L32.28 30.3424L32.016 39.4713L39.792 43.9285L45.024 41.0683L38.544 37.4215L38.736 34.1083L41.544 32.2969Z" fill="#00994D"/>
</svg>
