<svg width="48" height="34" viewBox="0 0 48 34" fill="none" xmlns="http://www.w3.org/2000/svg">
<path d="M7.2 14.5714C9.8475 14.5714 12 12.3933 12 9.71429C12 7.03527 9.8475 4.85714 7.2 4.85714C4.5525 4.85714 2.4 7.03527 2.4 9.71429C2.4 12.3933 4.5525 14.5714 7.2 14.5714ZM40.8 14.5714C43.4475 14.5714 45.6 12.3933 45.6 9.71429C45.6 7.03527 43.4475 4.85714 40.8 4.85714C38.1525 4.85714 36 7.03527 36 9.71429C36 12.3933 38.1525 14.5714 40.8 14.5714ZM43.2 17H38.4C37.08 17 35.8875 17.5388 35.0175 18.4116C38.04 20.0888 40.185 23.117 40.65 26.7143H45.6C46.9275 26.7143 48 25.629 48 24.2857V21.8571C48 19.1781 45.8475 17 43.2 17ZM24 17C28.6425 17 32.4 13.1978 32.4 8.5C32.4 3.80223 28.6425 0 24 0C19.3575 0 15.6 3.80223 15.6 8.5C15.6 13.1978 19.3575 17 24 17ZM29.76 19.4286H29.1375C27.5775 20.1875 25.845 20.6429 24 20.6429C22.155 20.6429 20.43 20.1875 18.8625 19.4286H18.24C13.47 19.4286 9.6 23.3446 9.6 28.1714V30.3571C9.6 32.3683 11.2125 34 13.2 34H34.8C36.7875 34 38.4 32.3683 38.4 30.3571V28.1714C38.4 23.3446 34.53 19.4286 29.76 19.4286ZM12.9825 18.4116C12.1125 17.5388 10.92 17 9.6 17H4.8C2.1525 17 0 19.1781 0 21.8571V24.2857C0 25.629 1.0725 26.7143 2.4 26.7143H7.3425C7.815 23.117 9.96 20.0888 12.9825 18.4116Z" fill="#00994D"/>
</svg>
