<svg width="151" height="15" viewBox="0 0 151 15" fill="none" xmlns="http://www.w3.org/2000/svg">
<path d="M1.65947 0.122905C2.5061 0.0320086 3.60144 0.22256 4.42991 0.452605C4.68958 0.52408 4.54434 0.782631 4.72304 0.84389C5.07255 0.963365 5.4087 0.848923 5.75312 0.98789C5.8672 1.03524 5.70319 1.44787 5.82325 1.48792C6.48136 1.70437 7.11712 1.62699 7.7884 1.74765C11.0948 2.34273 14.3578 2.65278 17.7166 3.00101C18.8241 3.11547 20.1561 3.55906 21.3108 3.44614C21.4456 3.43258 21.383 3.06076 21.4099 3.03161C21.8311 2.5858 21.6636 3.32272 21.9199 3.43362C22.9371 3.87177 24.0868 3.95941 25.0899 3.86385C25.5167 3.82211 25.1258 3.07114 25.5335 3.50144C25.5618 3.53055 25.436 3.91643 25.5503 3.96354C25.8096 4.06962 26.313 4.02309 26.5159 4.0636C26.9068 4.14364 26.9722 4.14275 27.3444 4.16458C27.8532 4.19784 28.4497 4.42041 29.0002 4.35733C29.1177 4.34271 28.982 3.93479 29.1712 3.87528C29.3605 3.81589 29.8513 3.87285 30.0129 3.97505C30.1746 4.07731 30.0892 4.38896 30.1152 4.46253C30.3285 5.08313 30.9375 4.2658 31.0118 4.24835C32.3646 3.9551 33.4881 4.48932 34.7425 4.54649C35.6948 4.58886 36.7204 4.47767 37.6255 4.54171C38.7036 4.61957 39.6084 4.8794 40.6588 4.89101C40.7696 4.8927 40.6619 4.4155 40.7973 4.41661C42.236 4.4288 43.6597 4.54671 45.0748 4.93151C45.2166 4.97051 45.0125 5.37555 45.1531 5.43925C46.0144 5.82014 47.3642 6.70156 47.9693 4.92483C48.5602 5.02289 49.2781 5.12921 49.7927 5.51707C50.1246 5.76673 49.7707 6.20183 50.2007 6.02919C50.2976 5.99078 50.1925 5.59037 50.3365 5.56261C50.9428 5.44611 51.5919 5.60496 52.1945 5.42874C52.3171 5.39196 52.3007 5.0368 52.3378 4.97472C52.6491 4.47242 53.0876 5.34723 53.1889 5.41404C53.9613 5.91302 54.5495 5.7583 55.2885 5.80409C55.46 5.81491 55.2793 5.33045 55.4451 5.32381C56.3048 5.2957 57.1901 5.37793 58.0189 5.62783C58.2032 5.68456 58.0128 6.08116 58.0999 6.12898C58.4842 6.33487 58.607 5.57473 58.9763 5.75744C59.0542 5.79498 58.9932 6.13926 59.0059 6.17798C59.2049 6.78572 59.4416 5.9488 59.5008 5.93284C60.2509 5.71204 60.6815 6.61738 61.4005 6.52558C61.4866 6.5137 61.3146 6.06646 61.5553 6.05988C63.1586 6.01345 64.8428 6.2127 66.4079 6.63705C66.6512 6.70244 66.4603 7.02348 66.4739 7.06479C66.6965 7.71071 66.8993 6.86864 66.981 6.84038C67.6243 6.63956 68.1818 7.37969 68.6588 6.38771C71.3211 6.86392 74.0141 6.42005 76.6284 7.45068C76.6616 7.46276 76.5816 7.8784 76.6481 7.90069C77.4485 8.17353 77.323 7.51588 77.8971 6.74551C78.0416 6.55208 78.4082 7.53162 78.4414 7.60372C78.5619 7.86931 78.3953 8.48546 78.4374 8.53777C78.7864 8.94941 78.8226 6.88774 79.3184 6.91021C79.3338 6.91436 79.251 7.29029 79.2908 7.32991C79.4146 7.45424 79.5498 7.30963 79.6702 7.44599C79.9456 7.76135 80.002 8.76659 80.4714 8.20498C80.5309 8.13203 80.5 6.96016 80.94 7.03599C81.1154 7.0672 81.8974 7.08364 82.1128 7.16954C82.3279 7.25533 82.1602 7.62468 82.1751 7.6417C82.741 8.16685 82.508 8.36268 82.7687 9.11323C83.0296 9.861 83.0295 8.10653 83.1589 7.91674C83.2885 7.72752 83.7013 8.15828 83.8008 8.30597C83.9002 8.45372 83.7567 8.68669 83.8473 8.7719C84.4481 9.32906 84.1624 7.91575 84.3814 7.64751C84.898 7.01227 85.2159 8.32823 85.6548 8.4762C85.7736 8.51618 85.6892 8.2159 85.7976 8.19325C86.2271 8.10745 86.4634 8.52447 86.9637 8.17557C87.0455 8.11872 87.4724 7.35637 87.6983 7.941C87.7303 8.02528 87.6135 8.34406 87.791 8.42497C88.0562 8.54635 88.5399 8.63979 88.8354 8.5452C89.0536 8.4752 88.8327 7.93062 89.0949 8.10883C89.2114 8.18837 88.9745 8.48986 89.1946 8.61329C89.4136 8.73663 89.9875 8.74968 90.2062 8.74909C90.4244 8.74825 90.3242 8.3383 90.343 8.31188C90.4568 8.16079 90.8838 7.9853 90.9207 7.98751C92.7858 8.02507 94.4717 8.78686 96.2959 8.6459C96.439 8.63542 96.3641 8.20456 96.3862 8.19857C96.8818 8.04264 96.4447 9.15849 96.7673 9.55387C96.7585 8.68622 96.9522 8.85228 97.2998 8.7734C97.4674 8.73468 97.3929 8.39541 97.4096 8.36181C97.6786 7.86433 97.8187 8.52965 97.8565 8.66617C97.9958 9.16842 98.1999 8.59219 98.295 8.92799C98.3901 9.26132 98.1132 9.73596 98.4427 9.74509C98.5494 9.43963 98.3428 8.61872 98.5989 8.49919C99.5649 8.04693 101.295 8.76421 102.051 8.86557C102.804 8.9668 103.051 8.92105 103.487 9.05357C104.274 9.29316 104.01 8.67894 104.517 8.4271C105.026 8.17537 104.716 9.64188 104.773 9.96288C104.828 10.2837 104.919 9.96038 104.998 10.139C105.077 10.3176 104.879 10.5248 105.08 10.5999C105.281 10.6748 105.866 10.136 105.954 9.8072C106.14 9.11062 105.922 8.3603 106.451 8.64503C106.481 8.66188 106.362 9.04574 106.479 9.09056C107.41 9.4338 108.391 9.49816 109.323 9.80678C109.451 9.84983 109.315 10.2767 109.389 10.3066C110.163 10.6198 109.915 9.87784 110.384 9.08829C110.237 10.1613 110.445 10.8316 111.042 10.8659C111.401 10.8868 111.361 10.4133 111.608 10.0925C111.683 9.99574 111.922 10.3307 111.978 10.1116C112.163 9.39518 111.962 8.57415 112.563 8.92536C112.589 8.94195 112.484 9.33394 112.577 9.36228C113.173 9.54741 113.28 8.79406 113.936 8.73285C114.451 8.68479 115.338 9.18865 115.917 9.29086C115.848 10.5017 116.411 10.25 116.673 9.42512C117.049 9.47694 117.459 9.44876 117.819 9.58125C117.942 9.62647 117.844 9.97336 117.858 10.012C118.073 10.6178 118.275 9.81288 118.358 9.78483C119.256 9.51638 119.947 10.1659 120.818 9.60331C120.849 9.58303 120.937 8.7438 121.134 9.36874C121.147 9.41177 120.85 9.78164 121.245 9.82976C121.641 9.87795 122.368 10.364 122.937 9.99972C123.074 9.91207 123.443 9.24468 123.689 9.79104C123.722 9.8652 123.671 10.1047 123.717 10.2414C123.865 10.6772 123.997 9.83095 124.161 10.5628C124.325 11.2945 124.711 11.8549 125.289 11.3823C125.308 11.3686 125.471 10.7006 125.645 10.7194C125.923 10.75 126.312 10.9089 126.603 10.9181C126.743 10.9223 126.673 10.4995 126.698 10.493C127.646 10.3021 128.296 10.7065 129.293 10.9153C129.475 10.9544 130.031 10.4083 130.366 10.8762C130.734 11.3885 130.236 13.4248 131.159 12.9772C131.531 12.7983 132.112 10.2124 132.7 11.5937C133.98 11.318 135.117 12.0639 136.408 11.6451C136.466 11.6266 136.68 10.9073 136.814 10.9235C137.012 10.9489 137.105 11.2941 137.246 11.3231C137.837 11.4533 138.395 11.1878 138.967 11.2598C139.184 11.2865 139.092 11.6346 139.351 11.6664C139.61 11.6978 139.805 11.2428 140.146 11.4829C140.404 11.6658 140.626 12.6247 140.973 12.7515C141.031 11.8185 141.272 11.849 141.714 11.6227C141.799 11.5787 141.726 11.2496 141.767 11.2121C141.934 11.052 142.069 11.3282 142.229 11.153C142.268 11.1109 142.284 10.7922 142.317 10.7398C142.595 10.2822 142.983 11.019 143.05 11.1473C143.305 11.6345 143.454 11.2259 143.658 11.4226C143.862 11.6192 143.534 11.8378 143.777 11.9627C144.28 12.2211 144.944 12.2005 145.466 12.2395C145.675 12.2531 145.552 11.8209 145.583 11.813C146.019 11.7252 146.434 12.1982 146.713 11.3616C146.909 13.5676 146.983 11.1611 147.579 11.6287C147.626 11.6665 147.639 12.7059 147.445 12.8494C147.252 12.9928 146.984 12.6555 146.715 12.8807C146.651 12.9335 146.255 13.8885 146.204 13.9451C145.807 14.3874 145.827 12.8359 145.811 12.7499C145.628 11.8213 145.151 12.8477 145.035 12.9147C144.502 13.2219 144.074 12.9836 143.631 13.1999C143.341 13.3396 143.266 14.353 143.045 14.3115C142.313 14.1745 142.121 12.747 141.369 13.9418C141.207 14.1966 141.304 15.3126 140.81 14.4156C140.779 14.3591 140.42 13.5428 140.167 14.0367C140.136 14.099 140.122 14.4222 140.082 14.4476C139.82 14.6114 139.662 14.346 139.379 14.4564C139.097 14.5667 138.755 14.735 138.444 14.6107C138.256 14.5362 138.04 13.9226 137.955 13.7709C137.718 13.3342 137.409 14.0177 137.273 13.4959C137.136 12.9715 137.488 12.2013 137.081 11.8476C137.026 12.6866 136.95 13.5468 136.886 14.3901C135.962 14.3174 135.065 14.0034 134.135 13.9971C134.02 13.9972 134.116 14.4541 133.992 14.4658C133.468 14.5133 133.029 14.1703 132.483 14.2732C132.061 14.3547 131.58 14.8112 131.138 14.9113C130.916 13.938 130.252 14.2339 129.786 14.1241C129.622 14.0861 129.645 13.83 129.532 13.7408C129.104 13.4105 129.271 14.2693 129.144 14.3972C128.597 14.9432 128.642 13.0193 128.026 13.0381C127.993 13.0385 127.548 14.0444 127.49 14.1056C127.123 14.5054 127.449 13.7464 127.235 13.6605C126.844 13.5036 126.58 13.2461 126.099 13.5244C125.959 13.6069 125.603 14.2302 125.362 13.724C125.331 13.6577 125.366 13.32 125.339 13.2989C124.848 12.9447 124.785 14.0081 124.479 14.3549C124.173 14.7017 123.761 13.9463 123.68 13.7304C123.467 13.1717 123.873 13.5049 123.888 13.4517C124.069 12.8193 123.738 12.9142 123.492 12.8485C123.504 11.8036 123.153 11.85 123.236 12.7847C123.246 12.8868 123.444 12.7985 123.492 12.8485C123.226 13.8619 122.837 13.9751 122.459 12.9989C122.282 12.5414 122.493 12.0274 121.884 12.1906C121.607 12.2642 121.679 12.9874 121.429 13.172C120.858 13.5932 120.175 12.8898 119.603 12.9689C119.396 12.9976 119.578 13.4002 119.435 13.4334C119.057 13.5227 118.742 13.2123 118.36 13.3459C118.326 13.3585 118.389 13.774 118.273 13.7738C117.387 13.7804 116.63 13.4809 115.708 13.4305C115.263 13.4064 114.455 13.5962 113.996 13.529C113.199 13.415 112.243 12.7705 111.553 12.884C111.103 12.9563 111.181 13.3726 110.977 13.6442C110.583 14.1707 109.976 13.1663 109.895 13.0114C109.893 13.0063 110.281 12.9271 110.086 12.7062C109.988 12.2603 109.9 13.0097 109.895 13.0114C109.842 12.9113 109.08 12.782 108.924 12.8536C108.84 12.8928 108.868 13.285 108.824 13.298C107.783 13.5993 106.752 13.6505 105.721 13.4196C105.703 13.4109 105.751 12.9759 105.708 12.9608C105.116 12.7387 104.706 13.2545 104.195 13.5482C103.684 13.8418 103.295 13.7174 103.036 12.9547C102.658 13.0315 102.136 12.6753 101.836 12.4599C101.537 12.2446 101.454 13.0919 101.426 13.1074C100.553 13.6052 100.085 13.0962 99.2087 12.9795C98.792 12.9225 97.9565 13.007 97.4992 13.0787C97.1377 13.1369 96.9313 12.9278 96.5955 13.0396C96.5501 13.0545 96.5775 13.4348 96.5632 13.4487C96.174 13.884 96.394 12.9678 96.3257 12.7991C96.0782 12.1859 95.9229 11.8581 95.4382 12.1186C95.3265 12.1782 94.9476 13.4945 94.7458 13.5631C94.4834 13.6498 94.603 13.1773 94.3277 13.2802C94.3042 13.2886 94.2953 13.5832 94.1293 13.5624C93.3589 13.47 92.524 13.2594 91.7193 13.2514C91.6094 13.2492 91.7283 13.7226 91.5692 13.7271C90.8227 13.7477 90.008 13.6924 89.2934 13.44C89.1176 13.3764 89.2447 13.0548 89.2105 12.9559C89.0001 12.3575 88.6231 13.1951 88.5667 13.2088C87.2206 13.5569 86.2409 12.7372 84.8712 13.0418C84.7965 13.0599 84.1871 13.9483 83.9709 13.1519C83.956 13.0989 83.7433 12.2846 83.4965 12.8231C83.4812 12.8567 83.6177 13.2772 83.3477 13.2224C83.0776 13.1677 82.627 13.4232 82.2742 12.9518C82.1625 12.8032 81.92 11.9895 81.5371 12.6112C81.5121 12.6547 80.8996 14.0725 80.7514 13.0677C80.7275 12.9023 80.8097 11.8501 80.363 12.3707C80.2777 12.4717 80.4128 12.7135 80.1939 12.8504C79.8583 13.0614 79.4408 12.7591 79.0193 13.2099C78.9457 13.2897 78.6157 13.991 78.4031 13.4371C78.3698 13.3504 78.457 13.0019 78.3332 12.9567C77.7445 12.7399 77.1078 12.946 76.5125 12.6743C76.3016 12.5788 76.438 12.0152 76.2211 11.8524C76.0042 11.6896 75.5597 11.5219 75.3131 11.7709C75.0665 12.0199 75.2804 12.9382 74.9257 12.9944C73.384 13.2381 71.8961 12.6358 70.375 12.4869C70.1494 12.4647 70.3217 12.7978 69.9882 12.7884C68.7583 12.7552 66.6227 12.9603 65.5887 12.2214C64.7602 11.6295 65.8549 11.2595 65.2126 11.0044C64.9026 10.8825 64.5126 11.9204 64.435 11.95C63.6764 12.2523 63.1819 11.7615 62.5066 11.8735C62.3671 11.8967 62.4826 12.3301 62.3642 12.3452C61.9593 12.4006 61.5464 12.1903 61.1612 12.2072C60.9883 12.2158 61.0048 12.5435 60.8477 12.5109C60.4715 12.4368 60.1428 12.284 59.7878 11.9611C59.7554 11.9316 60.0013 11.5364 59.7217 11.5083C59.2692 11.4638 58.7202 11.1359 58.1837 11.423C58.0245 11.5095 57.9836 12.2547 57.6748 11.7244C57.61 11.6136 57.7408 10.7225 57.317 11.4779C57.2457 11.6034 56.5457 12.6163 56.2574 11.9289C56.1813 11.748 56.0003 11.0054 55.8087 11.1118C55.7826 11.129 55.865 11.5342 55.7089 11.566C55.1589 11.6713 54.591 11.602 54.0264 11.7014C53.8756 11.7287 54.0785 12.1534 53.8543 12.1809C53.2379 12.2571 52.4794 12.116 51.8875 11.9584C51.6693 11.8995 51.8377 11.5633 51.8234 11.5252C51.5938 10.9056 51.403 11.7186 51.3151 11.7624C50.7693 12.0239 50.3818 11.6197 49.8862 11.6988C49.7495 11.7196 49.8273 12.1151 49.7987 12.1487C49.5031 12.4763 49.7442 11.7838 49.5708 11.6981C49.0852 11.4558 48.5309 11.4614 48.0271 11.488C47.8421 11.4983 48.0279 11.9614 47.8621 11.9654C46.8801 11.9979 45.865 11.9071 44.9218 11.6125C44.7443 11.5563 44.8737 11.2124 44.8399 11.1309C44.6077 10.5609 44.1937 11.3043 44.1032 11.3727C43.6918 11.6852 43.5524 11.3693 43.2 11.4106C41.4783 11.6178 39.3785 11.3149 37.7718 11.1133C35.6781 10.8526 34.063 10.4444 32.0551 10.4371C31.9275 10.4362 32.0342 10.9067 31.924 10.9119C30.5013 10.9577 29.1143 10.7111 27.6878 10.7789C27.5708 10.7837 27.7182 11.2318 27.5297 11.2543C27.1429 11.3033 26.6579 11.2567 26.2765 11.098C26.0905 11.0215 26.3619 10.6555 26.1743 10.5861C25.7374 10.4238 25.2634 10.3702 24.8046 10.4195C24.6093 10.4415 24.8808 10.9055 24.6285 10.8989C22.91 10.8635 21.2207 10.8624 19.5134 10.1983C19.3963 10.1527 19.3347 9.23256 19.0737 9.39628C19.0428 9.6494 19.0299 9.94824 19.0089 10.2193C16.5034 10.249 14.045 9.81628 11.5416 9.65029C11.436 9.6434 11.596 10.1369 11.3915 10.126C10.208 10.0636 9.05222 10.1443 7.86382 9.60576C7.74587 9.55301 7.84733 8.70274 7.48725 8.81525C7.4237 8.83588 6.88514 8.92477 6.73863 9.10354C6.7186 9.1306 6.7973 9.53336 6.62493 9.53694C5.62354 9.55081 4.58134 9.41107 3.59586 9.12124C3.43685 9.0737 3.62796 8.65763 3.51488 8.6201C2.71256 8.35705 1.81339 8.63816 1.05466 8.21689C0.546867 7.93338 0.773555 7.20933 0.530963 6.47489C0.496639 6.37126 0.175459 6.34011 0.178402 5.91952C0.184925 4.86187 0.394803 3.71322 0.383329 2.58501C0.381122 2.34201 -0.0622118 2.58293 0.22039 2.00916C0.240052 1.97079 0.56171 1.791 0.647973 1.5959C0.707986 1.46104 0.631316 1.02958 0.748889 0.858843C0.866446 0.688267 0.969915 1.05177 1.16087 0.853628C1.35187 0.652929 1.29484 0.163509 1.65947 0.122905ZM100.487 11.4969C100.22 11.0757 100.108 12.5676 100.434 12.2246C100.45 12.2063 100.501 11.5176 100.487 11.4969ZM135.122 12.8768C134.779 12.2005 134.478 13.1573 134.718 13.6785C134.958 14.1992 135.227 13.0819 135.122 12.8768ZM139.024 12.5768C138.611 12.0369 138.444 14.152 138.932 13.7456C138.96 13.7227 139.049 12.6082 139.024 12.5768ZM1.82172 6.32921C1.8187 6.30919 1.58818 6.27906 1.58173 6.29846C1.43637 6.76715 1.89732 6.82708 1.82172 6.32921ZM142.899 12.2327C142.776 11.9398 142.367 12.2523 142.52 12.6165C142.643 12.9095 143.052 12.5971 142.899 12.2327ZM85.6328 9.20595C85.6293 9.18348 85.4644 9.15569 85.4618 9.28168C85.4542 9.68748 85.6904 9.58388 85.6328 9.20595ZM149.443 12.5137C148.48 12.3889 147.976 10.6117 149.019 10.8582C149.208 10.9029 148.582 11.3971 148.817 11.5662C149.248 11.8743 149.594 10.7894 150.02 11.3992C150.097 11.5108 149.498 12.5247 149.441 12.5161C149.442 12.5153 149.442 12.5145 149.443 12.5137ZM100.406 9.69494C100.401 9.67491 100.172 9.64547 100.166 9.66479C100.019 10.1332 100.48 10.1928 100.406 9.69494ZM75.9948 7.83049C75.9841 7.7878 75.4529 7.72356 75.4337 7.76153C75.1195 8.52409 76.1932 8.65627 75.9948 7.83049ZM115.924 9.3236C116.197 8.85819 116.5 8.81601 116.672 9.42445C116.424 9.38103 116.174 9.36464 115.924 9.3236Z" fill="white"/>
</svg>
