<svg width="24" height="24" viewBox="0 0 24 24" fill="none" xmlns="http://www.w3.org/2000/svg">
<path fill-rule="evenodd" clip-rule="evenodd" d="M12 0C13.026 0 14.0784 0.0330001 15.0984 0.0870001L16.3032 0.159L17.4564 0.2445L18.5364 0.336L19.5228 0.432C20.5934 0.533837 21.601 1.10465 22.3679 2.0439C23.1349 2.98315 23.6122 4.23059 23.7156 5.5665L23.7636 6.204L23.8536 7.569C23.9376 8.9835 24 10.5255 24 12C24 13.4745 23.9376 15.0165 23.8536 16.431L23.7636 17.796L23.7156 18.4335C23.6121 19.7696 23.1347 21.0173 22.3675 21.9566C21.6003 22.8958 20.5924 23.4665 19.5216 23.568L18.5376 23.6625L17.4576 23.7555L16.3032 23.841L15.0984 23.913C14.0662 23.9689 13.0332 23.9979 12 24C10.9668 23.9979 9.93381 23.9689 8.9016 23.913L7.6968 23.841L6.5436 23.7555L5.4636 23.6625L4.4772 23.568C3.40658 23.4662 2.39904 22.8953 1.63205 21.9561C0.865066 21.0168 0.387829 19.7694 0.2844 18.4335L0.2364 17.796L0.1464 16.431C0.0549993 14.9567 0.00616757 13.4787 0 12C0 10.5255 0.0624 8.9835 0.1464 7.569L0.2364 6.204L0.2844 5.5665C0.387789 4.23083 0.864854 2.98358 1.6316 2.04436C2.39834 1.10514 3.40559 0.534175 4.476 0.432L5.4612 0.336L6.5412 0.2445L7.6956 0.159L8.9004 0.0870001C9.933 0.0310908 10.9664 0.00208437 12 0ZM9.6 8.3625V15.6375C9.6 16.3305 10.2 16.7625 10.68 16.4175L15.72 12.78C15.8297 12.7011 15.9208 12.5874 15.9841 12.4505C16.0475 12.3136 16.0808 12.1582 16.0808 12C16.0808 11.8418 16.0475 11.6864 15.9841 11.5495C15.9208 11.4126 15.8297 11.2989 15.72 11.22L10.68 7.584C10.5705 7.50498 10.4463 7.4634 10.3199 7.46342C10.1935 7.46345 10.0693 7.50508 9.9598 7.58414C9.85033 7.6632 9.75945 7.7769 9.69629 7.9138C9.63313 8.0507 9.59992 8.20597 9.6 8.364V8.3625Z" fill="#121F18"/>
</svg>
