<svg width="22" height="22" viewBox="0 0 22 22" fill="none" xmlns="http://www.w3.org/2000/svg">
<path d="M12.1115 3.94285C8.95369 0.784986 4.56473 0.0538549 2.30914 2.30947M2.30914 2.30947C0.0535549 4.56509 0.785788 8.95299 3.9425 12.1108M2.30914 2.30947C2.58137 3.67173 4.02473 6.63737 7.62034 7.61739M7.90145 19.6544C10.2193 21.9722 14.7304 21.2211 17.9761 17.9755C21.2205 14.7298 21.9728 10.2197 19.6539 7.90074C18.2561 8.17963 15.2049 9.66301 14.1971 13.3564C12.7582 18.6344 9.57926 19.0933 7.90034 19.6533M7.90256 19.6555C5.58475 17.3365 6.33587 12.8264 9.58148 9.58078C12.8271 6.33625 17.3372 5.58401 19.6561 7.90296" stroke="#00994D" stroke-width="2" stroke-linecap="round" stroke-linejoin="round"/>
</svg>
