<svg width="22" height="22" viewBox="0 0 22 22" fill="none" xmlns="http://www.w3.org/2000/svg">
<path d="M16 3.22222V1M6 3.22222V1M1.27778 6.55556H20.7222M1 8.82667C1 6.47667 1 5.30111 1.48444 4.40333C1.92249 3.60256 2.60222 2.96056 3.42667 2.56889C4.37778 2.11111 5.62222 2.11111 8.11111 2.11111H13.8889C16.3778 2.11111 17.6222 2.11111 18.5733 2.56889C19.41 2.97111 20.0889 3.61333 20.5156 4.40222C21 5.30222 21 6.47778 21 8.82778V14.2856C21 16.6356 21 17.8111 20.5156 18.7089C20.0775 19.5097 19.3978 20.1517 18.5733 20.5433C17.6222 21 16.3778 21 13.8889 21H8.11111C5.62222 21 4.37778 21 3.42667 20.5422C2.60238 20.1508 1.92268 19.5092 1.48444 18.7089C1 17.8089 1 16.6333 1 14.2833V8.82667Z" stroke="#00994D" stroke-width="2" stroke-linecap="round" stroke-linejoin="round"/>
</svg>
