<svg width="20" height="22" viewBox="0 0 20 22" fill="none" xmlns="http://www.w3.org/2000/svg">
<path d="M10 5V8L15 4L10 0V3C7.34784 3 4.8043 3.84285 2.92893 5.34315C1.05357 6.84344 0 8.87827 0 11C0 12.57 0.575 14.03 1.55 15.26L3.375 13.8C2.79807 12.939 2.49741 11.9769 2.5 11C2.5 9.4087 3.29018 7.88258 4.6967 6.75736C6.10322 5.63214 8.01088 5 10 5ZM18.45 6.74L16.625 8.2C17.175 9.04 17.5 10 17.5 11C17.5 12.5913 16.7098 14.1174 15.3033 15.2426C13.8968 16.3679 11.9891 17 10 17V14L5 18L10 22V19C12.6522 19 15.1957 18.1571 17.0711 16.6569C18.9464 15.1566 20 13.1217 20 11C20 9.43 19.425 7.97 18.45 6.74Z" fill="#00994D"/>
</svg>
